<svg width="16" height="16" viewBox="0 0 16 16" fill="none" xmlns="http://www.w3.org/2000/svg">
<g clip-path="url(#clip0_2_1108)">
<path d="M9.50012 0C6.09034 1.96464 6.50011 7.49999 6.50011 7.49999C6.50011 7.49999 5.00013 6.99999 5.00013 4.75001C3.21053 5.78772 2.00012 7.78228 2.00012 9.99999C2.00012 13.3137 4.68641 16 8.00013 16C11.3138 16 14.0001 13.3137 14.0001 9.99999C14.0001 5.12501 9.50012 4.12499 9.50012 0V0ZM8.52716 13.9326C7.32148 14.2332 6.10034 13.4995 5.79967 12.2937C5.49907 11.0881 6.23277 9.86685 7.43852 9.56625C10.3494 8.84049 10.7142 7.20357 10.7142 7.20357C10.7142 7.20357 12.1658 13.0254 8.52716 13.9326Z" fill="#91958F"/>
</g>
<defs>
<clipPath id="clip0_2_1108">
<rect width="16" height="16" fill="white"/>
</clipPath>
</defs>
</svg>
