<svg width="34" height="34" viewBox="0 0 34 34" fill="none" xmlns="http://www.w3.org/2000/svg">
<path d="M33.6664 25.2008V30.2008C33.6683 30.665 33.5732 31.1244 33.3872 31.5497C33.2013 31.975 32.9286 32.3568 32.5865 32.6706C32.2445 32.9844 31.8407 33.2233 31.401 33.372C30.9613 33.5207 30.4953 33.5759 30.0331 33.5341C24.9044 32.9769 19.9781 31.2244 15.6497 28.4175C11.6228 25.8586 8.20862 22.4444 5.64973 18.4175C2.83302 14.0695 1.08013 9.11914 0.533059 3.96748C0.49141 3.50659 0.546184 3.04208 0.693893 2.60352C0.841602 2.16496 1.07901 1.76196 1.391 1.42018C1.70299 1.0784 2.08273 0.805328 2.50604 0.618349C2.92935 0.43137 3.38696 0.334582 3.84973 0.334146H8.84973C9.65857 0.326185 10.4427 0.61261 11.056 1.14003C11.6693 1.66746 12.0699 2.39989 12.1831 3.20081C12.3941 4.80092 12.7855 6.37202 13.3497 7.88415C13.574 8.48069 13.6225 9.129 13.4896 9.75228C13.3566 10.3756 13.0478 10.9477 12.5997 11.4008L10.4831 13.5175C12.8557 17.6901 16.3105 21.1449 20.4831 23.5175L22.5997 21.4008C23.0529 20.9527 23.625 20.6439 24.2483 20.511C24.8715 20.378 25.5199 20.4266 26.1164 20.6508C27.6285 21.2151 29.1996 21.6064 30.7997 21.8175C31.6093 21.9317 32.3487 22.3395 32.8773 22.9633C33.4058 23.5871 33.6867 24.3834 33.6664 25.2008Z" fill="#15AC52"/>
</svg>
